<svg width="206" height="44" viewBox="0 0 206 44" fill="none" xmlns="http://www.w3.org/2000/svg">
<path fill-rule="evenodd" clip-rule="evenodd" d="M80.0453 35.7476C72.6744 41.1317 61.9533 43.9999 52.7063 43.9999C39.7514 43.9999 28.1369 39.278 19.2919 31.423C18.6219 30.8053 19.2026 29.9667 20.0513 30.4521C29.5663 35.9241 41.315 39.1898 53.4656 39.1898C61.6405 39.1898 70.6641 37.5129 78.973 34.0265C80.2235 33.5412 81.2513 34.865 80.0451 35.7476H80.0453Z" fill="#FF9900"/>
<path fill-rule="evenodd" clip-rule="evenodd" d="M85.8249 32.2613C84.9557 31.0698 80.0286 31.6876 77.8344 31.9966C77.1719 32.0848 77.0477 31.467 77.6687 31.0257C81.602 28.069 88.0193 28.9515 88.7645 29.9224C89.5097 30.8933 88.5575 37.777 84.8721 41.0431C84.2926 41.5285 83.7543 41.2637 84.0029 40.6018C84.8313 38.3952 86.6943 33.4966 85.8249 32.2613Z" fill="#FF9900"/>
<path d="M22.016 27.376H14.048V26.288C15.008 26.288 15.7013 26.224 16.128 26.096C16.576 25.968 16.8533 25.776 16.96 25.52C16.9813 25.4987 16.992 25.4347 16.992 25.328C16.992 25.2213 16.9707 25.1147 16.928 25.008C16.8853 24.88 16.8427 24.752 16.8 24.624C16.7147 24.4533 16.6293 24.2827 16.544 24.112C16.48 23.92 16.4053 23.728 16.32 23.536C16.0853 22.832 15.84 22.1387 15.584 21.456C15.328 20.7733 15.0827 20.0907 14.848 19.408H6.08C5.824 20.176 5.55733 20.944 5.28 21.712C5.024 22.48 4.768 23.2587 4.512 24.048C4.40533 24.2613 4.33067 24.464 4.288 24.656C4.26667 24.8267 4.256 24.9867 4.256 25.136C4.256 25.392 4.30933 25.5733 4.416 25.68C4.608 26.0853 5.48267 26.288 7.04 26.288V27.376H0.16V26.288C0.714667 26.288 1.16267 26.2133 1.504 26.064C1.86667 25.936 2.19733 25.6907 2.496 25.328C2.64533 25.136 2.784 24.8907 2.912 24.592C3.04 24.2933 3.17867 23.9627 3.328 23.6C3.456 23.2373 3.68 22.5867 4 21.648C4.34133 20.7093 4.72533 19.6213 5.152 18.384C5.57867 17.1467 6.03733 15.8453 6.528 14.48C7.01867 13.1147 7.47733 11.8133 7.904 10.576C8.33067 9.33867 8.704 8.25067 9.024 7.312C9.36533 6.37333 9.6 5.72267 9.728 5.36C10.0053 5.21067 10.2827 5.072 10.56 4.944C10.8373 4.79467 11.1147 4.64533 11.392 4.496C12.672 7.824 13.9307 11.12 15.168 14.384C16.4053 17.6267 17.664 20.912 18.944 24.24C19.2213 24.9653 19.552 25.488 19.936 25.808C20.384 26.128 21.0773 26.288 22.016 26.288V27.376ZM14.432 18.128C13.7493 16.3147 13.056 14.5013 12.352 12.688C11.6693 10.8747 10.9867 9.06133 10.304 7.248C9.664 9.06133 9.024 10.8747 8.384 12.688C7.76533 14.5013 7.136 16.3147 6.496 18.128H14.432ZM52.2668 27.376H45.8988V26.352C46.6881 26.352 47.2641 26.2347 47.6268 26C47.8828 25.744 48.0107 25.3387 48.0107 24.784V16.336C48.0107 14.736 47.1254 13.936 45.3547 13.936C44.0108 13.936 42.5601 14.576 41.0027 15.856V24.784C41.0027 25.36 41.1414 25.7547 41.4187 25.968C41.6321 26.0747 41.8774 26.16 42.1547 26.224C42.4321 26.3093 42.7521 26.352 43.1147 26.352V27.376H36.9387V26.352C37.7067 26.352 38.2721 26.2347 38.6347 26C38.8907 25.7867 39.0188 25.3813 39.0188 24.784V16.016C39.0188 14.6507 38.1761 13.968 36.4907 13.968C34.9761 13.968 33.4721 14.64 31.9787 15.984V24.784C31.9787 25.4027 32.1174 25.808 32.3947 26C32.8214 26.2347 33.4294 26.352 34.2187 26.352V27.376H27.7547V26.352C28.7361 26.352 29.4081 26.1707 29.7707 25.808C29.9414 25.5733 30.0267 25.3067 30.0267 25.008V15.824C30.0267 15.4827 29.9734 15.216 29.8667 15.024C29.7814 14.832 29.5787 14.6827 29.2587 14.576C29.0881 14.5333 28.8961 14.5013 28.6827 14.48C28.4694 14.4373 28.2134 14.416 27.9147 14.416C27.8934 14.3093 27.8721 14.2027 27.8507 14.096C27.8294 13.968 27.8081 13.8507 27.7867 13.744C28.4907 13.5093 29.1947 13.2747 29.8987 13.04C30.6027 12.8053 31.2961 12.5707 31.9787 12.336V14.608C33.8134 13.0933 35.6481 12.336 37.4827 12.336C39.2747 12.336 40.4161 13.1253 40.9067 14.704C42.7414 13.1253 44.5761 12.336 46.4107 12.336C47.8188 12.336 48.8108 12.752 49.3868 13.584C49.7921 14.1813 49.9948 14.9813 49.9948 15.984V24.784C49.9948 25.36 50.1334 25.7547 50.4107 25.968C50.5814 26.0747 50.8267 26.16 51.1467 26.224C51.4668 26.3093 51.8401 26.352 52.2668 26.352V27.376ZM61.0255 13.232C62.3055 12.6347 63.7775 12.336 65.4415 12.336C66.7855 12.336 67.8735 12.688 68.7055 13.392C69.6015 14.2027 70.0495 15.3333 70.0495 16.784V25.072C70.0495 25.1787 70.0495 25.3067 70.0495 25.456C70.0708 25.6053 70.0922 25.7547 70.1135 25.904C70.1562 26.0533 70.2095 26.1813 70.2735 26.288C70.3588 26.3947 70.4548 26.448 70.5615 26.448C70.8815 26.448 71.3402 26.2133 71.9375 25.744L72.3215 26.224C71.3828 27.3547 70.5508 27.92 69.8255 27.92C68.8868 27.92 68.3215 27.3227 68.1295 26.128C66.8068 27.3227 65.1215 27.92 63.0735 27.92C62.3695 27.92 61.7295 27.8453 61.1535 27.696C60.5988 27.5467 60.1295 27.312 59.7455 26.992C58.9562 26.3307 58.5615 25.4027 58.5615 24.208C58.5615 23.312 58.8602 22.512 59.4575 21.808C60.0762 21.0827 60.8655 20.4853 61.8255 20.016C63.4682 19.1627 65.5588 18.576 68.0975 18.256V16.272C68.0975 15.44 67.8415 14.768 67.3295 14.256C67.0308 13.9573 66.6788 13.744 66.2735 13.616C65.8895 13.488 65.4735 13.424 65.0255 13.424C64.1722 13.424 63.4468 13.5947 62.8495 13.936C62.4868 14.1707 62.1988 14.4053 61.9855 14.64C61.7722 14.8533 61.6655 15.0987 61.6655 15.376V15.536C61.6655 16.5813 61.2068 17.104 60.2895 17.104C59.4575 17.104 59.0415 16.624 59.0415 15.664C59.0415 14.6613 59.7028 13.8507 61.0255 13.232ZM68.0975 19.472C66.2202 19.664 64.4815 20.1973 62.8815 21.072C61.4308 21.8827 60.7055 22.9173 60.7055 24.176C60.7055 24.8587 60.9828 25.4133 61.5375 25.84C62.0922 26.2453 62.7855 26.448 63.6175 26.448C64.3855 26.448 65.1855 26.2987 66.0175 26C66.7002 25.7653 67.3935 25.36 68.0975 24.784V19.472ZM90.549 22.192C90.6557 22.256 90.773 22.32 90.901 22.384C91.029 22.4267 91.1463 22.4693 91.253 22.512C90.9543 23.3227 90.645 24.1333 90.325 24.944C90.0263 25.7547 89.7277 26.5653 89.429 27.376H78.325C78.3037 27.2693 78.293 27.152 78.293 27.024C78.293 26.9173 78.293 26.8 78.293 26.672C81.6423 22.384 85.0023 18.064 88.373 13.712H84.085C83.2317 13.712 82.4423 14.0107 81.717 14.608C80.9917 15.1413 80.2557 16.08 79.509 17.424C79.381 17.3813 79.253 17.328 79.125 17.264C78.997 17.2 78.8797 17.1467 78.773 17.104C79.0717 16.3573 79.3703 15.6 79.669 14.832C79.989 14.064 80.2983 13.3067 80.597 12.56H91.093V13.328C89.365 15.504 87.6583 17.6587 85.973 19.792C84.309 21.904 82.613 24.048 80.885 26.224H85.557C86.3463 26.224 86.9863 26.128 87.477 25.936C87.9677 25.7227 88.4263 25.3707 88.853 24.88C89.1303 24.5813 89.4077 24.208 89.685 23.76C89.9623 23.312 90.2503 22.7893 90.549 22.192ZM110.877 23.536C110.984 23.6213 111.091 23.7067 111.197 23.792C111.325 23.8773 111.443 23.9627 111.549 24.048C111.037 24.816 110.472 25.456 109.853 25.968C109.235 26.48 108.573 26.9067 107.869 27.248C106.909 27.7173 105.875 27.952 104.765 27.952C102.653 27.952 100.925 27.28 99.5815 25.936C98.1522 24.5067 97.4375 22.576 97.4375 20.144C97.4375 17.7973 98.1202 15.9093 99.4855 14.48C100.829 13.008 102.536 12.272 104.605 12.272C106.675 12.272 108.307 12.8693 109.501 14.064C110.781 15.28 111.421 17.04 111.421 19.344C109.437 19.408 107.485 19.4827 105.565 19.568C103.645 19.632 101.683 19.696 99.6775 19.76C99.6775 19.8453 99.6668 19.9307 99.6455 20.016C99.6455 20.08 99.6455 20.1547 99.6455 20.24C99.6455 21.136 99.7628 21.9467 99.9975 22.672C100.253 23.3973 100.616 24.048 101.085 24.624C102.067 25.904 103.443 26.544 105.213 26.544C106.152 26.544 107.133 26.2987 108.157 25.808C108.627 25.5307 109.085 25.2107 109.533 24.848C110.003 24.464 110.451 24.0267 110.877 23.536ZM99.7415 18.544C101.341 18.5013 102.92 18.448 104.477 18.384C106.035 18.32 107.613 18.2667 109.213 18.224C109.192 16.816 108.755 15.6853 107.901 14.832C107.027 13.8933 105.928 13.424 104.605 13.424C103.325 13.424 102.205 13.936 101.245 14.96C100.349 15.8987 99.8482 17.0933 99.7415 18.544ZM142.916 27.376H135.3V26.352C136.516 26.352 137.327 26.1813 137.732 25.84C138.074 25.52 138.244 25.0507 138.244 24.432V7.12C136.9 10.576 135.578 13.9893 134.276 17.36C132.996 20.7093 131.706 24.112 130.404 27.568H129.412C128.132 24.176 126.884 20.816 125.668 17.488C124.452 14.1387 123.204 10.7573 121.924 7.344V24.432C121.924 25.136 122.106 25.6373 122.468 25.936C122.895 26.2133 123.631 26.352 124.676 26.352V27.376H118.116V26.352C119.162 26.352 119.844 26.2347 120.164 26C120.506 25.744 120.676 25.3493 120.676 24.816V7.856C120.676 7.23733 120.506 6.8 120.164 6.544C119.823 6.26667 119.151 6.128 118.148 6.128V5.072H123.46C124.612 8.22933 125.764 11.344 126.916 14.416C128.09 17.488 129.252 20.6133 130.404 23.792C131.556 20.6133 132.708 17.488 133.86 14.416C135.034 11.344 136.196 8.22933 137.348 5.072H142.916V6.128C141.679 6.128 140.922 6.26667 140.644 6.544C140.41 6.84267 140.292 7.248 140.292 7.76V24.432C140.292 25.0933 140.431 25.5627 140.708 25.84C141.114 26.1813 141.85 26.352 142.916 26.352V27.376ZM152.194 13.232C153.474 12.6347 154.946 12.336 156.61 12.336C157.954 12.336 159.042 12.688 159.874 13.392C160.77 14.2027 161.218 15.3333 161.218 16.784V25.072C161.218 25.1787 161.218 25.3067 161.218 25.456C161.24 25.6053 161.261 25.7547 161.282 25.904C161.325 26.0533 161.378 26.1813 161.442 26.288C161.528 26.3947 161.624 26.448 161.73 26.448C162.05 26.448 162.509 26.2133 163.106 25.744L163.49 26.224C162.552 27.3547 161.72 27.92 160.994 27.92C160.056 27.92 159.49 27.3227 159.298 26.128C157.976 27.3227 156.29 27.92 154.242 27.92C153.538 27.92 152.898 27.8453 152.322 27.696C151.768 27.5467 151.298 27.312 150.914 26.992C150.125 26.3307 149.73 25.4027 149.73 24.208C149.73 23.312 150.029 22.512 150.626 21.808C151.245 21.0827 152.034 20.4853 152.994 20.016C154.637 19.1627 156.728 18.576 159.266 18.256V16.272C159.266 15.44 159.01 14.768 158.498 14.256C158.2 13.9573 157.848 13.744 157.442 13.616C157.058 13.488 156.642 13.424 156.194 13.424C155.341 13.424 154.616 13.5947 154.018 13.936C153.656 14.1707 153.368 14.4053 153.154 14.64C152.941 14.8533 152.834 15.0987 152.834 15.376V15.536C152.834 16.5813 152.376 17.104 151.458 17.104C150.626 17.104 150.21 16.624 150.21 15.664C150.21 14.6613 150.872 13.8507 152.194 13.232ZM159.266 19.472C157.389 19.664 155.65 20.1973 154.05 21.072C152.6 21.8827 151.874 22.9173 151.874 24.176C151.874 24.8587 152.152 25.4133 152.706 25.84C153.261 26.2453 153.954 26.448 154.786 26.448C155.554 26.448 156.354 26.2987 157.186 26C157.869 25.7653 158.562 25.36 159.266 24.784V19.472ZM181.43 13.712C181.43 14.8213 180.939 15.376 179.958 15.376C179.552 15.376 179.104 15.1947 178.614 14.832C178.251 14.5333 177.856 14.384 177.43 14.384C176.875 14.384 176.182 14.704 175.35 15.344C174.688 15.856 174.048 16.4427 173.43 17.104V24.848C173.43 25.4453 173.536 25.84 173.75 26.032C173.984 26.2453 174.571 26.352 175.51 26.352V27.376H169.43V26.352C169.984 26.352 170.411 26.3093 170.71 26.224C171.008 26.1387 171.211 26.0107 171.318 25.84C171.424 25.6693 171.478 25.4027 171.478 25.04V15.696C171.478 15.2693 171.403 14.9813 171.254 14.832C171.168 14.7467 170.987 14.6507 170.71 14.544C170.411 14.48 170.048 14.448 169.622 14.448C169.579 14.3413 169.547 14.2347 169.526 14.128C169.504 14.0213 169.472 13.9147 169.43 13.808C170.112 13.5307 170.784 13.264 171.446 13.008C172.107 12.7307 172.768 12.4533 173.43 12.176V15.472C173.942 14.9813 174.454 14.5333 174.966 14.128C175.478 13.7227 175.979 13.3813 176.47 13.104C177.536 12.4853 178.571 12.176 179.574 12.176C180.811 12.176 181.43 12.688 181.43 13.712ZM196.535 24.24C196.642 24.3253 196.738 24.4 196.823 24.464C196.93 24.528 197.036 24.592 197.143 24.656C196.759 25.552 196.236 26.2987 195.575 26.896C194.828 27.6 194.018 27.952 193.143 27.952C191.991 27.952 191.116 27.536 190.519 26.704C190.348 26.4053 190.21 26.064 190.103 25.68C189.996 25.296 189.943 24.8693 189.943 24.4V13.808H187.447V12.784C188.599 12.784 189.452 12.3467 190.007 11.472C190.626 10.4693 190.935 9.04 190.935 7.184H191.895V12.56H196.087V13.808H191.895V24.624C191.895 25.7547 192.492 26.32 193.687 26.32C194.647 26.32 195.596 25.6267 196.535 24.24Z" fill="white"/>
</svg>
